<?xml version="1.0" encoding="UTF-8"?>
<svg xmlns="http://www.w3.org/2000/svg" viewBox="234.0 192.3 377.1 316.2">
  <style>
    .district {
      fill: hsla(142, 71%, 25%, 0.2);
      stroke: hsl(142, 71%, 35%);
      stroke-width: 1;
      cursor: pointer;
    }
    .district:hover {
      fill: hsla(142, 71%, 25%, 0.35);
      stroke: hsl(142, 71%, 45%);
      stroke-width: 2;
    }
    .label {
      fill: rgba(255,255,255,0.6);
      font-family: Arial, sans-serif;
      font-size: 11px;
      font-weight: bold;
      text-anchor: middle;
      dominant-baseline: central;
      pointer-events: none;
    }
  </style>
  <rect width="100%" height="100%" fill="#0d0d0d" />
  <g>
    <path id="G1" d="M475.63,319.98 L474.7,320.23 L474.37,322.72 L474.54,323.41 L473.4,323.47 L473.12,323.91 L472.47,325.65 L472.39,325.71 L470.25,325.53 L470.25,325.53 L468.06,325.46 L467.57,322.85 L466.04,323.1 L464.42,327.02 L464.7,327.83 L461.14,330.7 L462.11,333.26 L466.12,336.31 L470.49,336 L475.39,336.44 L476.44,335.81 L478.58,339.74 L479.27,339.86 L482.27,338.31 L481.5,337 L478.22,336.19 L481.09,333.19 L482.06,333.44 L483.24,335.5 L485.1,336 L485.1,336.44 L487.61,338.93 L488.62,338.43 L490.6,339.12 L490.08,343.17 L491.45,344.91 L493.6,343.04 L494.41,339.99 L498.25,339.68 L498.58,339.49 L501.37,340.3 L501.53,342.79 L500.12,344.91 L499.59,344.79 L492.99,349.15 L490.85,348.65 L488.54,349.71 L484.7,348.09 L483.72,344.91 L484.61,342.11 L483.44,340.86 L481.21,341.05 L480.2,343.42 L477.37,343.73 L476.72,341.42 L474.78,340.68 L471.26,343.54 L470.29,343.85 L469.96,343.61 L469.27,338.87 L463.65,341.98 L460.01,338.87 L460.01,338.87 L459.88,338.93 L459.07,339.49 L454.74,340.24 L456.04,342.98 L453.93,344.54 L453.89,345.16 L455.15,345.41 L458.1,347.22 L454.1,349.22 L431.47,344.73 L429.41,347.16 L427.71,351.34 L431.71,353.14 L445.84,355.89 L446.73,357.63 L448.43,357.82 L461.18,357.26 L461.99,357.51 L464.34,356.76 L469.64,357.44 L470.97,358.19 L471.7,358.69 L477,360.5 L477.69,361.25 L478.38,361.5 L478.46,361.5 L484.94,363.3 L486.15,364.11 L489.35,368.17 L490,368.23 L497.08,370.85 L499.51,370.72 L506.67,375.4 L507.52,375.58 L513.59,373.15 L517.6,372.72 L517.8,372.84 L518.61,380.63 L522.46,384.25 L529.74,384.62 L536.99,382.13 L537.23,380.76 L541.73,378.64 L545.41,369.23 L543.18,367.48 L543.63,364.55 L542.7,363.86 L543.26,360.12 L542.74,359.63 L544.19,357.26 L547.27,358.32 L549.21,358.07 L549.25,358.01 L549.98,357.57 L550.63,354.83 L551.44,354.14 L551.03,352.08 L548.44,351.46 L543.87,346.29 L543.26,346.6 L542.86,347.16 L542.17,348.78 L541.32,349.4 L533.99,350.03 L532.58,347.97 L532.58,347.91 L531.57,347.1 L527.64,346.97 L526.71,346.04 L527.92,344.29 L527.84,343.85 L529.46,342.17 L529.83,341.92 L532.38,342.42 L532.82,342.3 L533.14,338.37 L533.18,338.31 L537.03,338.81 L537.35,339.18 L550.39,340.24 L548.24,334.69 L544.6,332.95 L543.59,332.63 L540.75,329.27 L540.55,327.83 L538.37,326.09 L536.14,323.66 L536.63,321.35 L535.33,319.98 L532.58,319.54 L529.5,315.86 L523.39,317.11 L522.22,316.3 L519.18,315.86 L519.06,315.74 L518.69,308.88 L519.18,307.95 L518.41,306.2 L520.96,300.72 L519.34,299.35 L510.07,301.22 L508.78,299.22 L500.32,296.42 L498.09,297.66 L496.35,300.28 L495.75,303.46 L491.37,304.58 L484.09,300.34 L483.97,299.16 L483.24,298.6 L483.04,292.43 L480.49,294.42 L479.47,297.54 L479.88,298.1 L480,298.16 L478.99,301.28 L480.08,301.84 L478.75,304.08 L478.54,304.15 L478.38,305.77 L478.99,306.33 L477.53,308.38 L478.95,310.94 L476.68,313.06 L476.8,313.81 L478.58,313.99 L478.79,315.05 L480.69,315.55 L481.21,313.75 L483.8,313.5 L486.64,315.12 L489.88,313.68 L494.29,316.36 L497.81,313.93 L499.79,315.43 L500.08,320.73 L505.86,320.66 L504.73,324.84 L501.37,324.78 L499.59,329.39 L497.53,328.96 L496.72,327.02 L493.84,326.9 L493.4,326.09 L495.3,321.35 L491.82,322.22 L489.8,321.54 L487.81,321.29 L487.12,320.23 L488.14,317.61 L484.25,317.36 L482.87,315.99 L480.89,316.24 L481.3,318.86 L482.83,318.92 L483,321.54 L482.51,321.72 L480.61,321.35 L480.16,321.35 L480.12,323.59 L478.95,324.47 L478.79,324.28 L478.91,322.6 L477.94,320.42 L480.04,318.73 L479.23,317.55 L477.94,317.67 L477.94,317.67 L477.45,315.68 L476.72,315.49 L475.55,317.11 L474.86,317.36 L474.74,317.8 L475.63,319.98 Z" class="district" />
    <path id="G2" d="M454.1,349.22 L458.1,347.22 L455.15,345.41 L453.89,345.16 L453.93,344.54 L456.04,342.98 L454.74,340.24 L459.07,339.49 L459.88,338.93 L460.01,338.87 L460.01,338.87 L463.65,341.98 L469.27,338.87 L469.96,343.61 L470.29,343.85 L471.26,343.54 L474.78,340.68 L476.72,341.42 L477.37,343.73 L480.2,343.42 L481.21,341.05 L483.44,340.86 L484.61,342.11 L483.72,344.91 L484.7,348.09 L488.54,349.71 L490.85,348.65 L492.99,349.15 L499.59,344.79 L500.12,344.91 L501.53,342.79 L501.37,340.3 L498.58,339.49 L498.25,339.68 L494.41,339.99 L493.6,343.04 L491.45,344.91 L490.08,343.17 L490.6,339.12 L488.62,338.43 L487.61,338.93 L485.1,336.44 L485.1,336 L483.24,335.5 L482.06,333.44 L481.09,333.19 L478.22,336.19 L481.5,337 L482.27,338.31 L479.27,339.86 L478.58,339.74 L476.44,335.81 L475.39,336.44 L470.49,336 L466.12,336.31 L462.11,333.26 L461.14,330.7 L464.7,327.83 L464.42,327.02 L466.04,323.1 L467.57,322.85 L468.06,325.46 L470.25,325.53 L470.25,325.53 L472.39,325.71 L472.47,325.65 L473.12,323.91 L473.4,323.47 L474.54,323.41 L474.37,322.72 L474.7,320.23 L475.63,319.98 L474.74,317.8 L474.86,317.36 L475.55,317.11 L476.72,315.49 L477.45,315.68 L477.94,317.67 L477.94,317.67 L479.23,317.55 L480.04,318.73 L477.94,320.42 L478.91,322.6 L478.79,324.28 L478.95,324.47 L480.12,323.59 L480.16,321.35 L480.61,321.35 L482.51,321.72 L483,321.54 L482.83,318.92 L481.3,318.86 L480.89,316.24 L482.87,315.99 L484.25,317.36 L488.14,317.61 L487.12,320.23 L487.81,321.29 L489.8,321.54 L491.82,322.22 L495.3,321.35 L493.4,326.09 L493.84,326.9 L496.72,327.02 L497.53,328.96 L499.59,329.39 L501.37,324.78 L504.73,324.84 L505.86,320.66 L500.08,320.73 L499.79,315.43 L497.81,313.93 L494.29,316.36 L489.88,313.68 L486.64,315.12 L483.8,313.5 L481.21,313.75 L480.69,315.55 L478.79,315.05 L478.58,313.99 L476.8,313.81 L476.68,313.06 L478.95,310.94 L477.53,308.38 L478.99,306.33 L478.38,305.77 L478.54,304.15 L478.75,304.08 L480.08,301.84 L478.99,301.28 L480,298.16 L479.88,298.1 L479.47,297.54 L480.49,294.42 L483.04,292.43 L483.24,298.6 L483.97,299.16 L484.09,300.34 L491.37,304.58 L495.75,303.46 L496.35,300.28 L498.09,297.66 L490.69,290.62 L486.76,291.74 L483.6,291.18 L481.86,289.43 L481.82,289.37 L473.69,286.63 L472.92,285.94 L471.7,286.13 L471.66,286.13 L467.45,287.19 L464.54,286.94 L463.61,286.38 L460.57,288 L459.24,291.3 L459.36,291.62 L456.77,293.98 L456.56,294.11 L451.22,294.11 L450.01,294.98 L448.23,292.92 L445.15,293.8 L444.99,293.42 L440.54,290.62 L440.09,293.17 L438.8,293.92 L434.67,293.3 L434.91,292.36 L439.2,289.12 L438.55,288.31 L435.88,287.81 L433.05,289.25 L430.94,289.06 L430.38,292.24 L427.22,292.05 L426.86,291.8 L427.5,289 L424.91,289.25 L423.94,289.56 L421.31,286.5 L419.21,288.75 L416.9,287.81 L412.49,289.81 L412.32,290.31 L412.45,290.62 L410.5,293.86 L410.5,293.86 L411.6,295.98 L411.43,297.72 L414.27,300.53 L414.67,301.84 L414.83,302.09 L413.58,306.39 L415.68,309.82 L418.68,311.69 L418.92,312.56 L419.85,313.75 L420.22,313.87 L422.48,315.68 L430.54,315.86 L429.37,319.17 L425.44,324.65 L425.88,328.27 L424.1,331.7 L422.2,333.76 L426.53,337.31 L424.55,340.61 L429.41,347.16 L431.47,344.73 L454.1,349.22 Z" class="district" />
    <path id="G3" d="M456.56,294.11 L456.77,293.98 L459.36,291.62 L459.24,291.3 L460.57,288 L463.61,286.38 L462.92,283.82 L463.28,282.02 L462.6,281.45 L459.28,280.08 L456.73,277.46 L455.76,278.28 L451.83,278.52 L451.46,279.52 L448.91,280.21 L448.63,277.09 L448.15,276.72 L448.06,276.78 L446.16,279.27 L444.91,279.09 L444.58,277.22 L442.36,275.78 L441.55,277.65 L439.4,278.71 L438.67,278.15 L438.31,275.91 L436.65,275.22 L434.02,269.92 L433.98,269.8 L428.27,270.23 L426.33,269.98 L426.21,269.67 L425.64,266.68 L426.77,263.25 L436.41,248.79 L444.06,245.24 L447.98,239.19 L443.41,238.88 L432,246.86 L426.13,257.02 L426.98,257.33 L422.61,262.25 L419.53,266.43 L419.08,266.43 L417.99,267.62 L415.85,268.49 L415.16,267.93 L414.63,265.62 L410.34,265.25 L409.49,264.56 L410.58,262.25 L407.06,260.26 L404.15,262.88 L402.49,258.83 L402,258.51 L401.4,257.77 L401.07,257.7 L396.5,259.08 L395.53,258.76 L395.33,258.45 L394.56,255.9 L394.43,255.77 L390.14,257.64 L388.53,255.77 L388.61,255.52 L387.96,254.21 L385.13,253.34 L385.25,253.15 L384.56,250.72 L384.03,250.35 L382.7,250.47 L382.58,250.54 L381.44,249.35 L382.78,247.67 L380.83,246.36 L379.54,249.1 L379.42,249.1 L379.22,249.29 L379.7,251.84 L376.42,253.15 L376.02,252.22 L372.82,249.91 L370.51,254.65 L371.44,258.33 L370.8,260.7 L369.7,261.69 L358.09,266.06 L356.47,266.99 L355.46,268.11 L355.09,268.8 L352.83,269.49 L350.76,269.98 L341.45,267.05 L329.51,270.3 L325.63,269.8 L321.86,267.37 L312.11,275.03 L310.85,278.34 L308.1,279.71 L303.16,274.29 L295.92,273.41 L295.67,273.48 L297.29,283.32 L295.15,282.02 L289.12,272.66 L288.96,272.6 L287.54,273.16 L287.46,273.23 L272.6,276.03 L271.07,277.03 L269.97,278.03 L267.22,282.08 L267.02,282.33 L262.77,283.14 L262.04,283.51 L254.02,290.99 L268.35,304.27 L273.7,305.27 L277.78,305.02 L286.16,302.96 L293.08,317.74 L293.45,318.05 L294.74,318.48 L302.92,327.71 L309.96,331.45 L322.87,326.96 L328.18,333.63 L343.44,338.06 L349.18,335.94 L351.61,338.06 L357.64,340.43 L361,345.41 L365.82,347.16 L370.63,346.78 L372.09,347.59 L374.76,348.09 L376.38,348.78 L379.01,349.03 L382.7,350.03 L386.34,349.34 L388.65,350.77 L391.6,354.14 L398.24,353.33 L406.94,357.07 L410.26,354.76 L415.93,352.77 L417.38,351.27 L423.54,351.77 L427.71,351.34 L429.41,347.16 L424.55,340.61 L426.53,337.31 L422.2,333.76 L424.1,331.7 L425.88,328.27 L425.44,324.65 L429.37,319.17 L430.54,315.86 L422.48,315.68 L420.22,313.87 L419.85,313.75 L418.92,312.56 L418.68,311.69 L415.68,309.82 L413.58,306.39 L414.83,302.09 L414.67,301.84 L414.27,300.53 L411.43,297.72 L411.6,295.98 L410.5,293.86 L410.5,293.86 L412.45,290.62 L412.32,290.31 L412.49,289.81 L416.9,287.81 L419.21,288.75 L421.31,286.5 L423.94,289.56 L424.91,289.25 L427.5,289 L426.86,291.8 L427.22,292.05 L430.38,292.24 L430.94,289.06 L433.05,289.25 L435.88,287.81 L438.55,288.31 L439.2,289.12 L434.91,292.36 L434.67,293.3 L438.8,293.92 L440.09,293.17 L440.54,290.62 L444.99,293.42 L445.15,293.8 L448.23,292.92 L450.01,294.98 L451.22,294.11 L456.56,294.11 Z" class="district" />
    <path id="G4" d="M536.63,321.35 L536.14,323.66 L538.37,326.09 L540.55,327.83 L540.75,329.27 L543.59,332.63 L544.6,332.95 L548.24,334.69 L550.39,340.24 L537.35,339.18 L537.03,338.81 L533.18,338.31 L533.14,338.37 L532.82,342.3 L532.38,342.42 L529.83,341.92 L529.46,342.17 L527.84,343.85 L527.92,344.29 L526.71,346.04 L527.64,346.97 L531.57,347.1 L532.58,347.91 L532.58,347.97 L533.99,350.03 L541.32,349.4 L542.17,348.78 L542.86,347.16 L543.26,346.6 L543.87,346.29 L548.44,351.46 L551.03,352.08 L551.44,354.14 L550.63,354.83 L549.98,357.57 L549.25,358.01 L549.21,358.07 L548.81,360.25 L549.82,361.12 L552.65,361.31 L553.26,359.94 L555.49,360.19 L557.35,359.38 L557.23,358.57 L559.82,356.38 L560.99,359 L564.15,358.5 L565.24,357.01 L564.39,354.26 L562.97,352.08 L572.73,352.77 L574.67,352.15 L575.48,346.78 L561.6,343.04 L563.42,341.36 L575.56,338.12 L576.05,336.37 L573.22,334.82 L572.77,334.01 L570.26,326.59 L574.96,321.16 L574.63,319.98 L574.31,314.81 L575.12,313.06 L575.48,312.12 L572.81,308.51 L559.25,305.08 L556.78,299.84 L556.78,298.54 L555.61,296.73 L557.19,284.32 L556.42,282.76 L556.66,282.02 L556.09,280.52 L558.64,269.98 L559.45,268.61 L560.14,266.12 L554.35,261.51 L544.84,265.18 L539.94,265.81 L538.69,266.37 L525.37,259.76 L527.56,253.28 L527.6,253.15 L528.21,252.47 L530.39,249.41 L528.49,239.31 L519.91,235.7 L519.38,235.26 L515.82,235.45 L511.25,238.01 L507,238.19 L505.66,231.46 L498.38,229.28 L497.08,230.65 L489.19,234.02 L485.55,226.72 L489.59,223.67 L485.71,212.26 L481.82,214.44 L481.01,214.5 L475.14,213.69 L471.38,216.12 L471.1,216.69 L469.88,221.8 L466.44,225.91 L462.6,223.11 L461.02,222.67 L456,218.37 L452.48,218.56 L446.49,221.55 L449.04,224.66 L446.16,232.15 L447.42,233.45 L449.04,234.58 L448.63,239 L447.98,239.19 L444.06,245.24 L436.41,248.79 L426.77,263.25 L425.64,266.68 L426.21,269.67 L426.33,269.98 L428.27,270.23 L433.98,269.8 L434.02,269.92 L436.65,275.22 L438.31,275.91 L438.67,278.15 L439.4,278.71 L441.55,277.65 L442.36,275.78 L444.58,277.22 L444.91,279.09 L446.16,279.27 L448.06,276.78 L448.15,276.72 L448.63,277.09 L448.91,280.21 L451.46,279.52 L451.83,278.52 L455.76,278.28 L456.73,277.46 L459.28,280.08 L462.6,281.45 L463.28,282.02 L462.92,283.82 L463.61,286.38 L464.54,286.94 L467.45,287.19 L471.66,286.13 L471.7,286.13 L472.92,285.94 L473.69,286.63 L481.82,289.37 L481.86,289.43 L483.6,291.18 L486.76,291.74 L490.69,290.62 L498.09,297.66 L500.32,296.42 L508.78,299.22 L510.07,301.22 L519.34,299.35 L520.96,300.72 L518.41,306.2 L519.18,307.95 L518.69,308.88 L519.06,315.74 L519.18,315.86 L522.22,316.3 L523.39,317.11 L529.5,315.86 L532.58,319.54 L535.33,319.98 L536.63,321.35 Z M415.2,254.59 L413.5,253.59 L413.54,253.15 L412.24,249.72 L410.54,249.91 L408.84,252.28 L406.42,251.72 L405.89,249.66 L406.78,248.35 L406.42,245.92 L406.29,245.74 L404.55,245.49 L400.75,246.48 L400.47,246.42 L399.86,246.61 L397.51,243.3 L394.39,244.05 L394.27,243.93 L394.15,242.81 L392.57,240.62 L390.02,240.37 L389.62,240.5 L386.83,238.38 L384.15,238.94 L380.75,236.26 L380.31,235.26 L378.12,235.08 L375.45,237.69 L373.51,241.93 L373.35,242.74 L373.51,242.93 L373.43,245.55 L373.1,246.48 L372.42,247.36 L372.33,248.42 L372.82,249.91 L376.02,252.22 L376.42,253.15 L379.7,251.84 L379.22,249.29 L379.42,249.1 L379.54,249.1 L380.83,246.36 L382.78,247.67 L381.44,249.35 L382.58,250.54 L382.7,250.47 L384.03,250.35 L384.56,250.72 L385.25,253.15 L385.13,253.34 L387.96,254.21 L388.61,255.52 L388.53,255.77 L390.14,257.64 L394.43,255.77 L394.56,255.9 L395.33,258.45 L395.53,258.76 L396.5,259.08 L401.07,257.7 L401.4,257.77 L402,258.51 L402.49,258.83 L404.15,262.88 L407.06,260.26 L410.58,262.25 L409.49,264.56 L410.34,265.25 L414.63,265.62 L415.16,267.93 L415.85,268.49 L417.99,267.62 L419.08,266.43 L419.53,266.43 L422.61,262.25 L421.72,261.82 L419.89,258.33 L421.47,256.08 L421.55,255.34 L420.99,254.59 L418.76,253.59 L415.2,254.59 Z" class="district" />
    <path id="G5" d="M390.18,378.64 L389.46,380.2 L388.97,385.31 L385.37,388.05 L384.92,388.3 L383.59,390.86 L385.04,392.6 L390.31,396.97 L402.45,398.9 L403.7,402.89 L403.26,403.76 L404.67,407.38 L408.6,412.43 L408.68,412.43 L416.41,413.42 L419.49,419.35 L428.11,422.21 L428.76,421.71 L440.74,421.34 L443.65,428.26 L443.77,428.32 L445.96,434.06 L453.81,431.38 L452.07,428.82 L453.16,424.64 L456.36,424.52 L458.71,419.78 L458.59,419.59 L461.66,416.66 L462.27,416.35 L464.98,415.79 L464.58,412.05 L467.65,412.24 L470.25,408.69 L465.06,409.37 L466.85,405.57 L465.79,403.45 L466.72,402.08 L467.7,401.83 L470.81,403.7 L472.03,407.38 L476.24,406.01 L479.47,408.19 L480.16,410.18 L479.27,411.24 L476.03,413.36 L473.73,419.84 L480.49,421.71 L482.06,422.52 L488.14,428.32 L484.25,436.86 L481.78,439.17 L482.55,441.6 L488.26,447.4 L491.33,449.39 L492.18,451.57 L493.36,452.88 L499.83,457.37 L503.84,458.99 L505.62,461.42 L509.02,464.29 L515.98,468.34 L520.56,467.35 L521.53,468.53 L544.88,483.18 L546.83,483.93 L549.29,488.17 L550.75,488.48 L566.74,488.48 L568.36,486.86 L565.69,479.81 L567.02,467.91 L572.65,471.34 L580.87,464.17 L580.34,462.55 L588.07,457 L591.11,454.63 L589.57,446.46 L588.64,445.65 L581.15,443.53 L571.35,443.66 L566.74,435.68 L565.77,434.31 L563.26,429.94 L562.77,429.32 L552.82,426.83 L550.55,420.78 L550.71,416.6 L550.75,416.42 L556.26,403.89 L554.15,403.26 L544.28,398.46 L539.82,394.16 L539.82,387.62 L539.3,386.87 L536.99,382.13 L529.74,384.62 L522.46,384.25 L518.61,380.63 L517.8,372.84 L517.6,372.72 L513.59,373.15 L507.52,375.58 L506.67,375.4 L499.51,370.72 L497.08,370.85 L490,368.23 L489.35,368.17 L486.15,364.11 L484.94,363.3 L478.46,361.5 L478.38,361.5 L477.69,361.25 L477,360.5 L471.7,358.69 L470.97,358.19 L469.64,357.44 L464.34,356.76 L461.99,357.51 L461.18,357.26 L448.43,357.82 L446.73,357.63 L445.84,355.89 L431.71,353.14 L427.71,351.34 L423.54,351.77 L417.38,351.27 L415.93,352.77 L410.26,354.76 L406.94,357.07 L398.24,353.33 L391.6,354.14 L390.63,359.81 L392.21,362.99 L383.06,365.55 L382.45,367.73 L382.17,367.92 L381.81,370.47 L385.61,371.22 L390.06,369.66 L391.36,369.6 L391.4,371.35 L389.94,374.71 L390.18,378.64 Z" class="district" />
  </g>
  <g>
    <text x="494.89" y="334.46" class="label">G1</text>
    <text x="466.59" y="317.55" class="label">G2</text>
    <text x="392.73" y="287.85" class="label">G3</text>
    <text x="474.53" y="281.79" class="label">G4</text>
    <text x="476.29" y="406.36" class="label">G5</text>
  </g>
</svg>