<?xml version="1.0" encoding="UTF-8" standalone="no"?>
<!DOCTYPE svg PUBLIC "-//W3C//DTD SVG 1.1//EN" "http://www.w3.org/Graphics/SVG/1.1/DTD/svg11.dtd">
<svg width="100%" height="100%" viewBox="0 0 4434 1842" version="1.1" xmlns="http://www.w3.org/2000/svg" xmlns:xlink="http://www.w3.org/1999/xlink" xml:space="preserve" xmlns:serif="http://www.serif.com/" style="fill-rule:evenodd;clip-rule:evenodd;stroke-linejoin:round;stroke-miterlimit:2;">
    <g transform="matrix(1,0,0,1,-1318.32,-1545.65)" fill="white">
        <g transform="matrix(2.27417,2.60683e-16,-2.52483e-16,2.34802,2587.39,3053.98)">
            <path d="M44.207,-642.385L247.284,-642.385L437.006,-133.542L621.663,-642.385L817.832,-642.385L817.832,-603.243L801.255,-603.243C781.3,-603.243 767.869,-601.555 760.962,-598.178C754.054,-594.801 748.605,-588.891 744.614,-580.449C740.623,-572.007 738.628,-558.115 738.628,-538.775L738.628,-115.123C738.628,-88.414 740.24,-71.069 743.463,-63.087C746.686,-55.105 752.059,-49.042 759.58,-44.898C767.102,-40.753 780.993,-38.681 801.255,-38.681L817.832,-38.681L817.832,0L572.391,0L572.391,-38.681L589.889,-38.681C605.546,-38.681 616.981,-39.909 624.196,-42.365C631.41,-44.821 637.397,-48.889 642.155,-54.568C646.913,-60.248 649.6,-66.157 650.214,-72.297C651.749,-84.884 652.516,-94.708 652.516,-101.769L652.516,-574.693L442.993,0L397.404,0L186.038,-566.404L186.038,-110.978C186.038,-87.954 188.034,-72.374 192.025,-64.239C196.016,-56.103 202.232,-49.81 210.675,-45.358C219.117,-40.907 234.237,-38.681 256.033,-38.681L270.769,-38.681L270.769,0L44.207,0L44.207,-38.681L57.101,-38.681C78.897,-38.681 94.477,-40.984 103.841,-45.589C113.204,-50.194 119.881,-56.717 123.872,-65.16C127.863,-73.602 129.859,-90.256 129.859,-115.123L129.859,-534.63C129.859,-557.962 128.17,-573.388 124.793,-580.91C121.416,-588.431 115.814,-594.034 107.985,-597.718C100.157,-601.401 86.265,-603.243 66.311,-603.243L44.207,-603.243L44.207,-642.385Z" style="fill-rule:nonzero;"/>
        </g>
        <g transform="matrix(2.27417,-1.26242e-16,1.26242e-16,2.27417,1206.26,3031.67)">
            <path d="M551.208,-642.385L584.824,-642.385L637.32,-444.374L595.876,-430.099C568.246,-492.726 536.472,-537.393 500.554,-564.102C464.636,-590.81 423.959,-604.164 378.524,-604.164C313.134,-604.164 258.336,-576.995 214.128,-522.657C169.921,-468.32 147.818,-403.544 147.818,-328.33C147.818,-274.299 159.1,-224.72 181.664,-179.592C204.228,-134.463 234.39,-100.08 272.15,-76.442C309.911,-52.803 349.973,-40.984 392.338,-40.984C419.661,-40.984 445.679,-45.972 470.392,-55.95C495.105,-65.927 515.136,-77.823 530.486,-91.638C541.845,-102.076 549.519,-113.588 553.51,-126.175C557.501,-138.761 559.343,-156.26 559.036,-178.671L559.036,-209.063C559.036,-233.316 556.197,-250.507 550.517,-260.638C544.838,-270.769 536.779,-277.983 526.341,-282.281C518.36,-285.658 496.87,-287.346 461.873,-287.346L461.873,-326.028L722.511,-326.028L722.511,-287.346L701.328,-287.346C683.215,-287.346 670.859,-285.581 664.259,-282.051C657.658,-278.52 652.823,-273.071 649.753,-265.703C646.683,-258.336 645.148,-243.907 645.148,-222.417L645.148,9.161L599.56,9.161L578.818,-56.18C553.03,-37.453 521.89,-22.871 492.726,-12.433C449.132,3.223 406,11.052 363.328,11.052C277.062,11.052 203.153,-20.645 141.601,-84.04C80.049,-147.434 49.273,-226.408 49.273,-320.962C49.273,-414.903 80.432,-493.8 142.752,-557.655C205.072,-621.51 279.672,-653.437 366.551,-653.437C388.348,-653.437 409.837,-651.288 431.02,-646.99C452.202,-642.692 471.543,-636.552 489.042,-628.57C502.242,-622.738 517.592,-613.221 535.091,-600.02L551.208,-642.385Z" style="fill-rule:nonzero;"/>
        </g>
        <g transform="matrix(0.403701,-2.24099e-17,2.04611e-17,0.368594,1501.55,3308.73)">
            <path d="M551.208,-642.385L584.824,-642.385L637.32,-444.374L595.876,-430.099C568.246,-492.726 536.472,-537.393 500.554,-564.102C464.636,-590.81 423.959,-604.164 378.524,-604.164C313.134,-604.164 258.336,-576.995 214.128,-522.657C169.921,-468.32 147.818,-403.544 147.818,-328.33C147.818,-274.299 159.1,-224.72 181.664,-179.592C204.228,-134.463 234.39,-100.08 272.15,-76.442C309.911,-52.803 349.973,-40.984 392.338,-40.984C419.661,-40.984 445.679,-45.972 470.392,-55.95C495.105,-65.927 515.136,-77.823 530.486,-91.638C541.845,-102.076 549.519,-113.588 553.51,-126.175C557.501,-138.761 559.343,-156.26 559.036,-178.671L559.036,-209.063C559.036,-233.316 556.197,-250.507 550.517,-260.638C544.838,-270.769 536.779,-277.983 526.341,-282.281C518.36,-285.658 496.87,-287.346 461.873,-287.346L461.873,-326.028L722.511,-326.028L722.511,-287.346L701.328,-287.346C683.215,-287.346 670.859,-285.581 664.259,-282.051C657.658,-278.52 652.823,-273.071 649.753,-265.703C646.683,-258.336 645.148,-243.907 645.148,-222.417L645.148,0L599.56,0L575.153,-56.18C549.366,-37.453 521.89,-22.871 492.726,-12.433C449.132,3.223 406,11.052 363.328,11.052C277.062,11.052 203.153,-20.645 141.601,-84.04C80.049,-147.434 49.273,-226.408 49.273,-320.962C49.273,-414.903 80.432,-493.8 142.752,-557.655C205.072,-621.51 279.672,-653.437 366.551,-653.437C388.348,-653.437 409.837,-651.288 431.02,-646.99C452.202,-642.692 471.543,-636.552 489.042,-628.57C502.242,-622.738 517.592,-613.221 535.091,-600.02L551.208,-642.385Z" style="fill-rule:nonzero;"/>
        </g>
        <g transform="matrix(0.403701,-2.24099e-17,2.04611e-17,0.368594,1501.55,3308.73)">
            <path d="M783.295,-599.099L783.295,-636.859C825.047,-639.929 865.723,-652.823 905.326,-675.541L939.402,-675.541L939.402,-108.676C939.402,-84.73 940.937,-69.688 944.007,-63.548C947.998,-54.952 953.831,-48.659 961.506,-44.668C969.18,-40.677 983.916,-38.681 1005.71,-38.681L1020.45,-38.681L1020.45,0L783.295,0L783.295,-38.681L807.241,-38.681C822.284,-38.681 833.566,-40.984 841.087,-45.589C848.608,-50.194 853.981,-56.487 857.204,-64.469C860.428,-72.451 862.039,-88.414 862.039,-112.36L862.039,-599.099L783.295,-599.099Z" style="fill-rule:nonzero;"/>
        </g>
        <g transform="matrix(0.403701,-2.24099e-17,2.04611e-17,0.368594,1501.55,3308.73)">
            <path d="M1402.2,-266.624L1402.2,-316.818C1402.2,-350.894 1392.68,-375.224 1373.64,-389.806C1354.61,-404.388 1327.75,-411.679 1293.06,-411.679C1275.87,-411.679 1260.83,-409.607 1247.93,-405.462C1235.04,-401.318 1224.68,-395.639 1216.85,-388.424C1209.02,-381.21 1203.26,-372.998 1199.58,-363.788C1198.05,-360.411 1194.36,-347.364 1188.53,-324.646C1181.47,-297.017 1167.19,-283.202 1145.7,-283.202C1133.42,-283.202 1123.52,-287.27 1116,-295.405C1108.48,-303.54 1104.72,-314.515 1104.72,-328.33C1104.72,-348.592 1112.24,-368.47 1127.28,-387.964C1142.33,-407.458 1165.27,-423.575 1196.13,-436.315C1226.98,-449.056 1263.43,-455.426 1305.49,-455.426C1344.79,-455.426 1378.4,-449.363 1406.34,-437.236C1434.28,-425.11 1454.85,-407.688 1468.05,-384.971C1477.26,-369.314 1481.86,-340.763 1481.86,-299.319L1481.86,-122.03C1481.86,-96.857 1482.63,-80.432 1484.16,-72.758C1487.54,-59.557 1493.45,-49.656 1501.89,-43.056C1510.33,-36.456 1521.31,-33.155 1534.82,-33.155C1548.94,-33.155 1565.82,-36.532 1585.47,-43.286L1585.47,-3.223C1559.99,4.144 1537.12,7.828 1516.86,7.828C1495.06,7.828 1476.72,4.758 1461.83,-1.381C1446.94,-7.521 1434.74,-16.501 1425.22,-28.32C1415.7,-40.139 1409.56,-54.184 1406.8,-70.455C1369.96,-41.598 1336.65,-21.336 1306.87,-9.67C1277.1,1.995 1247.01,7.828 1216.62,7.828C1174.25,7.828 1139.87,-3.684 1113.47,-26.708C1087.07,-49.733 1073.87,-76.749 1073.87,-107.755C1073.87,-126.482 1078.7,-144.287 1088.37,-161.172C1098.04,-178.057 1112.78,-192.946 1132.58,-205.84C1152.38,-218.733 1183.46,-230.092 1225.83,-239.916C1268.19,-249.74 1326.98,-258.643 1402.2,-266.624ZM1402.2,-226.562C1330.97,-216.124 1286.92,-208.909 1270.04,-204.919C1236.57,-197.244 1212.63,-188.801 1198.2,-179.592C1183.77,-170.382 1173.49,-160.481 1167.35,-149.89C1161.2,-139.299 1158.13,-128.017 1158.13,-116.044C1158.13,-104.071 1161.59,-92.482 1168.5,-81.277C1175.4,-70.071 1185.15,-61.245 1197.74,-54.798C1210.32,-48.352 1223.68,-45.128 1237.8,-45.128C1257.76,-45.128 1280.32,-49.887 1305.49,-59.403C1330.67,-68.92 1362.9,-87.493 1402.2,-115.123L1402.2,-226.562Z" style="fill-rule:nonzero;"/>
        </g>
        <g transform="matrix(0.403701,-2.24099e-17,2.04611e-17,0.368594,1501.55,3308.73)">
            <path d="M1929.92,-444.374L1962.15,-444.374L2003.6,-303.464L1962.15,-289.649C1945.58,-327.409 1922.32,-357.111 1892.39,-378.754C1862.46,-400.397 1832.14,-411.219 1801.44,-411.219C1777.8,-411.219 1758.62,-405.462 1743.88,-393.95C1729.14,-382.438 1721.78,-369.16 1721.78,-354.118C1721.78,-339.996 1727.15,-327.87 1737.89,-317.739C1748.33,-307.301 1771.82,-295.482 1808.35,-282.281L1898.14,-250.507C1948.8,-232.395 1983.34,-213.054 2001.76,-192.485C2019.87,-171.61 2028.92,-147.971 2028.92,-121.57C2028.92,-99.159 2022.17,-77.593 2008.66,-56.871C1995.15,-36.149 1975.58,-19.648 1949.95,-7.368C1924.32,4.912 1894.92,11.052 1861.77,11.052C1810.19,11.052 1765.98,-3.684 1729.14,-33.155L1719.47,0L1686.78,0L1629.22,-150.581L1671.12,-167.158C1699.06,-122.951 1725.46,-91.638 1750.33,-73.218C1785.02,-47.124 1822.47,-34.076 1862.69,-34.076C1889.39,-34.076 1911.35,-41.214 1928.54,-55.489C1945.73,-69.764 1954.33,-85.651 1954.33,-103.15C1954.33,-117.579 1948.95,-130.779 1938.21,-142.752C1927.16,-154.418 1905.97,-165.777 1874.66,-176.829L1768.29,-215.51C1722.54,-232.088 1690.77,-250.2 1672.96,-269.848C1655.16,-289.495 1646.26,-312.06 1646.26,-337.54C1646.26,-368.546 1660.76,-395.946 1689.77,-419.738C1718.78,-443.53 1755.7,-455.426 1800.52,-455.426C1823.85,-455.426 1844.73,-452.433 1863.15,-446.446C1881.57,-440.46 1899.68,-430.559 1917.49,-416.745L1929.92,-444.374Z" style="fill-rule:nonzero;"/>
        </g>
        <g transform="matrix(0.403701,-2.24099e-17,2.04611e-17,0.368594,1501.55,3308.73)">
            <path d="M2464.55,-407.995C2478.36,-424.266 2492.41,-436.239 2506.68,-443.913C2520.96,-451.588 2534.08,-455.426 2546.06,-455.426C2557.11,-455.426 2566.39,-452.126 2573.91,-445.525C2581.44,-438.925 2585.2,-430.866 2585.2,-421.349C2585.2,-411.526 2581.82,-403.237 2575.07,-396.483C2568.31,-389.729 2559.72,-386.352 2549.28,-386.352C2544.98,-386.352 2539.15,-387.12 2531.78,-388.655C2523.18,-390.804 2515.97,-391.878 2510.14,-391.878C2502.46,-391.878 2494.48,-388.348 2486.19,-381.287C2505.22,-358.262 2514.74,-331.247 2514.74,-300.24C2514.74,-257.875 2496.94,-221.189 2461.33,-190.183C2425.71,-159.176 2380.74,-143.673 2326.4,-143.673C2296.32,-143.673 2266.08,-149.967 2235.68,-162.553C2215.42,-148.125 2203.91,-139.222 2201.15,-135.845C2196.85,-130.626 2194.7,-125.1 2194.7,-119.267C2194.7,-110.364 2199.31,-102.997 2208.52,-97.164C2220.18,-89.489 2243.21,-83.042 2277.59,-77.823L2410.67,-58.022C2440.14,-53.417 2469.77,-45.742 2499.55,-34.997C2529.33,-24.253 2550.89,-10.284 2564.24,6.907C2577.6,24.099 2584.28,44.668 2584.28,68.613C2584.28,109.136 2565.55,141.524 2528.1,165.777C2480.51,196.783 2409.9,212.286 2316.27,212.286C2267.15,212.286 2227.24,207.068 2196.54,196.63C2165.84,186.192 2142.05,171.456 2125.17,152.423C2112.89,138.608 2106.75,124.333 2106.75,109.597C2106.75,90.563 2112.96,71.99 2125.4,53.877C2137.83,35.765 2166.61,9.977 2211.74,-23.485C2182.57,-30.853 2161.7,-39.449 2149.11,-49.273C2133.15,-61.859 2125.17,-76.135 2125.17,-92.098C2125.17,-100.08 2126.62,-107.525 2129.54,-114.432C2132.46,-121.339 2137.22,-128.247 2143.82,-135.154C2150.42,-142.062 2162.47,-151.655 2179.97,-163.935C2191.02,-171.61 2198.85,-177.289 2203.45,-180.973C2181.04,-196.937 2164.16,-214.819 2152.8,-234.62C2141.44,-254.421 2135.76,-276.141 2135.76,-299.78C2135.76,-338.768 2150.8,-372.844 2180.89,-402.009C2217.42,-437.62 2266.69,-455.426 2328.7,-455.426C2356.33,-455.426 2380.43,-451.972 2401,-445.065C2421.57,-438.157 2442.75,-425.801 2464.55,-407.995ZM2324.56,-412.6C2294.47,-412.6 2268.99,-401.702 2248.12,-379.905C2227.24,-358.109 2216.8,-331.093 2216.8,-298.859C2216.8,-277.369 2221.56,-257.952 2231.08,-240.607C2240.6,-223.261 2253.95,-209.6 2271.14,-199.623C2288.33,-189.646 2306.45,-184.657 2325.48,-184.657C2344.51,-184.657 2362.7,-189.722 2380.05,-199.853C2397.39,-209.984 2410.75,-223.645 2420.11,-240.837C2429.47,-258.029 2434.16,-277.369 2434.16,-298.859C2434.16,-332.628 2423.95,-360.027 2403.53,-381.056C2383.12,-402.086 2356.79,-412.6 2324.56,-412.6ZM2251.34,-12.894C2221.87,12.28 2202.3,32.695 2192.63,48.352C2182.96,64.008 2178.12,79.051 2178.12,93.48C2178.12,105.759 2182.96,117.655 2192.63,129.168C2202.3,140.68 2218.8,150.12 2242.13,157.488C2265.46,164.856 2294.78,168.54 2330.09,168.54C2371.84,168.54 2407.68,164.012 2437.61,154.955C2467.54,145.899 2488.95,134.31 2501.85,120.188C2511.37,109.136 2516.12,96.089 2516.12,81.046C2516.12,68.153 2512.21,57.254 2504.38,48.352C2496.55,39.449 2481.82,31.697 2460.17,25.097C2438.53,18.496 2418.35,13.661 2399.62,10.591L2251.34,-12.894Z" style="fill-rule:nonzero;"/>
        </g>
        <g transform="matrix(0.403701,-2.24099e-17,2.04611e-17,0.368594,1501.55,3308.73)">
            <path d="M2850.44,-455.426C2895.57,-455.426 2934.63,-446.062 2967.64,-427.336C3000.64,-408.609 3026.66,-381.287 3045.69,-345.368C3064.72,-309.45 3074.24,-268.466 3074.24,-222.417C3074.24,-176.368 3064.49,-135.384 3045,-99.466C3025.5,-63.548 2998.95,-36.149 2965.33,-17.268C2931.72,1.612 2891.58,11.052 2844.91,11.052C2770.62,11.052 2714.83,-12.126 2677.53,-58.482C2640.23,-104.838 2621.58,-159.33 2621.58,-221.957C2621.58,-267.699 2631.25,-308.299 2650.59,-343.757C2669.93,-379.214 2697.02,-406.69 2731.86,-426.185C2766.71,-445.679 2806.23,-455.426 2850.44,-455.426ZM2846.76,-410.758C2811.76,-410.758 2782.13,-396.943 2757.88,-369.314C2727.18,-334.931 2711.83,-284.891 2711.83,-219.194C2711.83,-155.953 2724.88,-107.755 2750.97,-74.6C2774.61,-45.128 2806.69,-30.392 2847.22,-30.392C2873.31,-30.392 2896.57,-37.3 2916.98,-51.115C2937.4,-64.929 2953.9,-86.956 2966.48,-117.195C2979.07,-147.434 2985.36,-182.968 2985.36,-223.799C2985.36,-263.708 2978.61,-299.473 2965.1,-331.093C2954.66,-356.267 2938.93,-375.838 2917.9,-389.806C2896.87,-403.774 2873.16,-410.758 2846.76,-410.758Z" style="fill-rule:nonzero;"/>
        </g>
        <g transform="matrix(0.403701,-2.24099e-17,2.04611e-17,0.368594,1501.55,3308.73)">
            <path d="M3111.54,-444.374L3323.37,-444.374L3323.37,-405.693L3308.63,-405.693C3290.52,-405.693 3278.54,-404.311 3272.71,-401.548C3263.5,-397.25 3258.9,-390.497 3258.9,-381.287C3258.9,-372.691 3262.43,-358.876 3269.49,-339.842L3364.81,-87.954L3457.83,-321.883L3449.54,-343.526C3440.02,-368.393 3428.97,-385.585 3416.38,-395.101C3408.1,-401.241 3395.82,-404.772 3379.55,-405.693L3379.55,-444.374L3590.45,-444.374L3590.45,-405.693L3572.49,-405.693C3555.61,-405.693 3544.71,-404.311 3539.8,-401.548C3531.2,-396.636 3526.9,-388.808 3526.9,-378.063C3526.9,-368.853 3530.12,-356.113 3536.57,-339.842L3631.89,-87.954L3724.91,-343.526C3729.83,-357.341 3732.43,-365.17 3732.74,-367.011C3733.66,-370.388 3734.12,-373.919 3734.12,-377.603C3734.12,-386.199 3730.75,-393.029 3723.99,-398.095C3717.24,-403.16 3704.81,-405.693 3686.69,-405.693L3669.65,-405.693L3669.65,-444.374L3848.33,-444.374L3848.33,-405.693C3835.12,-405.079 3824.38,-402.776 3816.09,-398.785C3807.8,-394.794 3801.2,-389.576 3796.29,-383.129C3791.38,-376.682 3784.47,-362.253 3775.57,-339.842L3641.1,0L3585.85,0L3479.47,-265.243L3374.48,0L3319.68,0L3183.84,-339.842C3175.24,-361.639 3168.18,-376.068 3162.65,-383.129C3157.13,-390.19 3150.3,-395.715 3142.16,-399.706C3134.03,-403.697 3123.82,-405.693 3111.54,-405.693L3111.54,-444.374Z" style="fill-rule:nonzero;"/>
        </g>
        <g transform="matrix(0.412585,-2.29031e-17,2.09113e-17,0.376705,3036.88,3314.21)">
            <path d="M44.207,-642.385L247.284,-642.385L437.006,-133.542L621.663,-642.385L817.832,-642.385L817.832,-603.243L801.255,-603.243C781.3,-603.243 767.869,-601.555 760.962,-598.178C754.054,-594.801 748.605,-588.891 744.614,-580.449C740.623,-572.007 738.628,-558.115 738.628,-538.775L738.628,-115.123C738.628,-88.414 740.24,-71.069 743.463,-63.087C746.686,-55.105 752.059,-49.042 759.58,-44.898C767.102,-40.753 780.993,-38.681 801.255,-38.681L817.832,-38.681L817.832,0L572.391,0L572.391,-38.681L589.889,-38.681C605.546,-38.681 616.981,-39.909 624.196,-42.365C631.41,-44.821 637.397,-48.889 642.155,-54.568C646.913,-60.248 649.6,-66.157 650.214,-72.297C651.749,-84.884 652.516,-94.708 652.516,-101.769L652.516,-574.693L442.993,0L397.404,0L186.038,-566.404L186.038,-110.978C186.038,-87.954 188.034,-72.374 192.025,-64.239C196.016,-56.103 202.232,-49.81 210.675,-45.358C219.117,-40.907 234.237,-38.681 256.033,-38.681L270.769,-38.681L270.769,0L44.207,0L44.207,-38.681L57.101,-38.681C78.897,-38.681 94.477,-40.984 103.841,-45.589C113.204,-50.194 119.881,-56.717 123.872,-65.16C127.863,-73.602 129.859,-90.256 129.859,-115.123L129.859,-534.63C129.859,-557.962 128.17,-573.388 124.793,-580.91C121.416,-588.431 115.814,-594.034 107.985,-597.718C100.157,-601.401 86.265,-603.243 66.311,-603.243L44.207,-603.243L44.207,-642.385Z" style="fill-rule:nonzero;"/>
        </g>
        <g transform="matrix(0.412585,-2.29031e-17,2.09113e-17,0.376705,3036.88,3314.21)">
            <path d="M876.775,-444.374L1051.3,-451.281L1051.3,-154.725C1051.3,-128.631 1054.91,-107.908 1062.12,-92.559C1069.34,-77.209 1080.39,-65.313 1095.28,-56.871C1110.17,-48.428 1127.59,-44.207 1147.54,-44.207C1172.1,-44.207 1199.96,-50.808 1231.12,-64.008C1262.28,-77.209 1293.37,-96.857 1324.37,-122.951L1324.37,-337.54C1324.37,-360.258 1322.68,-375.147 1319.31,-382.208C1315.93,-389.269 1309.94,-394.948 1301.35,-399.246C1292.75,-403.544 1279.24,-405.693 1260.83,-405.693L1227.21,-405.693L1227.21,-444.374L1401.74,-451.281L1401.74,-107.755C1401.74,-85.651 1403.58,-70.378 1407.26,-61.936C1410.94,-53.494 1416.39,-47.507 1423.61,-43.977C1430.82,-40.446 1445.33,-38.681 1467.12,-38.681L1481.4,-38.681L1481.4,0L1328.52,7.828L1328.52,-77.363C1286.46,-43.9 1249.77,-20.799 1218.46,-8.059C1187.15,4.682 1155.37,11.052 1123.14,11.052C1099.19,11.052 1078.39,7.828 1060.74,1.381C1043.09,-5.065 1027.59,-14.736 1014.23,-27.629C1000.88,-40.523 990.67,-56.026 983.609,-74.139C976.548,-92.252 973.018,-111.592 973.018,-132.161L973.018,-341.684C973.018,-360.411 971.329,-373.535 967.952,-381.056C964.576,-388.578 958.973,-394.564 951.145,-399.016C943.316,-403.467 932.648,-405.693 919.14,-405.693L876.775,-405.693L876.775,-444.374Z" style="fill-rule:nonzero;"/>
        </g>
        <g transform="matrix(0.412585,-2.29031e-17,2.09113e-17,0.376705,3036.88,3314.21)">
            <path d="M1854.86,-444.374L1887.09,-444.374L1928.54,-303.464L1887.09,-289.649C1870.52,-327.409 1847.26,-357.111 1817.33,-378.754C1787.4,-400.397 1757.08,-411.219 1726.38,-411.219C1702.74,-411.219 1683.56,-405.462 1668.82,-393.95C1654.08,-382.438 1646.72,-369.16 1646.72,-354.118C1646.72,-339.996 1652.09,-327.87 1662.83,-317.739C1673.27,-307.301 1696.76,-295.482 1733.29,-282.281L1823.09,-250.507C1873.74,-232.395 1908.28,-213.054 1926.69,-192.485C1944.81,-171.61 1953.86,-147.971 1953.86,-121.57C1953.86,-99.159 1947.11,-77.593 1933.6,-56.871C1920.1,-36.149 1900.52,-19.648 1874.89,-7.368C1849.26,4.912 1819.86,11.052 1786.71,11.052C1735.13,11.052 1690.92,-3.684 1654.08,-33.155L1644.41,0L1611.72,0L1554.16,-150.581L1596.06,-167.158C1624,-122.951 1650.4,-91.638 1675.27,-73.218C1709.96,-47.124 1747.41,-34.076 1787.63,-34.076C1814.34,-34.076 1836.29,-41.214 1853.48,-55.489C1870.67,-69.764 1879.26,-85.651 1879.26,-103.15C1879.26,-117.579 1873.89,-130.779 1863.15,-142.752C1852.1,-154.418 1830.91,-165.777 1799.6,-176.829L1693.23,-215.51C1647.48,-232.088 1615.71,-250.2 1597.9,-269.848C1580.1,-289.495 1571.2,-312.06 1571.2,-337.54C1571.2,-368.546 1585.7,-395.946 1614.71,-419.738C1643.72,-443.53 1680.64,-455.426 1725.46,-455.426C1748.79,-455.426 1769.67,-452.433 1788.09,-446.446C1806.51,-440.46 1824.62,-430.559 1842.42,-416.745L1854.86,-444.374Z" style="fill-rule:nonzero;"/>
        </g>
        <g transform="matrix(0.412585,-2.29031e-17,2.09113e-17,0.376705,3036.88,3314.21)">
            <path d="M2033.53,-597.257L2033.53,-636.859C2063.31,-640.85 2086.49,-645.532 2103.06,-650.904C2119.64,-656.277 2136.99,-664.489 2155.1,-675.541L2191.02,-675.541L2191.02,-371.156C2225.71,-400.32 2258.56,-421.656 2289.56,-435.164C2320.57,-448.672 2350.19,-455.426 2378.44,-455.426C2419.57,-455.426 2453.5,-443.146 2480.2,-418.586C2506.61,-394.027 2519.81,-364.095 2519.81,-328.791L2519.81,-102.69C2519.81,-80.279 2521.57,-65.62 2525.1,-58.713C2528.63,-51.805 2534.54,-46.74 2542.83,-43.516C2551.12,-40.293 2569.69,-38.681 2598.55,-38.681L2598.55,0L2360.94,0L2360.94,-38.681L2378.44,-38.681C2400.85,-38.681 2415.58,-40.446 2422.64,-43.977C2429.7,-47.507 2434.85,-53.34 2438.07,-61.476C2441.29,-69.611 2442.91,-86.419 2442.91,-111.899L2442.91,-268.927C2442.91,-303.617 2441.68,-326.181 2439.22,-336.619C2434.62,-354.425 2425.1,-368.7 2410.67,-379.445C2396.24,-390.19 2377.82,-395.562 2355.41,-395.562C2330.24,-395.562 2303.91,-389.345 2276.44,-376.912C2248.96,-364.479 2220.49,-345.829 2191.02,-320.962L2191.02,-90.256C2191.02,-73.065 2192.55,-61.552 2195.62,-55.719C2198.69,-49.887 2203.76,-45.589 2210.82,-42.826C2217.88,-40.063 2232,-38.681 2253.18,-38.681L2272.06,-38.681L2272.06,0L2033.53,0L2033.53,-38.681L2047.8,-38.681C2070.22,-38.681 2086.49,-41.444 2096.62,-46.97C2102.14,-49.733 2106.13,-55.105 2108.59,-63.087C2111.05,-71.069 2112.27,-93.173 2112.27,-129.398L2112.27,-597.257L2033.53,-597.257Z" style="fill-rule:nonzero;"/>
        </g>
        <g transform="matrix(0.412585,-2.29031e-17,2.09113e-17,0.376705,3036.88,3314.21)">
            <path d="M2655.19,-378.524L2655.19,-416.284C2677.6,-418.126 2697.56,-421.887 2715.06,-427.566C2732.55,-433.245 2752.51,-442.532 2774.92,-455.426L2809.46,-455.426L2809.46,-368.393C2831.25,-395.101 2856.58,-416.284 2885.44,-431.941C2914.3,-447.597 2940.24,-455.426 2963.26,-455.426C2985.98,-455.426 3003.94,-450.053 3017.14,-439.309C3030.34,-428.564 3036.94,-415.517 3036.94,-400.167C3036.94,-389.115 3032.57,-379.368 3023.82,-370.926C3015.07,-362.483 3004.55,-358.262 2992.27,-358.262C2986.75,-358.262 2981.99,-359.03 2978,-360.565C2974.01,-362.1 2968.17,-365.476 2960.5,-370.695C2943.61,-381.747 2929.49,-387.273 2918.13,-387.273C2902.78,-387.273 2885.9,-380.826 2867.48,-367.932C2844.15,-351.355 2825.88,-335.084 2812.68,-319.12L2812.68,-106.834C2812.68,-88.414 2813.68,-75.904 2815.67,-69.304C2817.67,-62.704 2820.97,-57.024 2825.57,-52.266C2830.18,-47.507 2835.86,-44.054 2842.61,-41.905C2849.37,-39.756 2861.18,-38.681 2878.07,-38.681L2893.27,-38.681L2893.27,0L2655.19,0L2655.19,-38.681L2674.99,-38.681C2693.72,-38.681 2706,-40.37 2711.83,-43.747C2719.81,-48.352 2725.72,-54.722 2729.56,-62.857C2733.4,-70.992 2735.32,-85.651 2735.32,-106.834L2735.32,-378.524L2655.19,-378.524Z" style="fill-rule:nonzero;"/>
        </g>
        <g transform="matrix(0.412585,-2.29031e-17,2.09113e-17,0.376705,3036.88,3314.21)">
            <path d="M3310.93,-455.426C3356.06,-455.426 3395.12,-446.062 3428.13,-427.336C3461.13,-408.609 3487.15,-381.287 3506.18,-345.368C3525.21,-309.45 3534.73,-268.466 3534.73,-222.417C3534.73,-176.368 3524.98,-135.384 3505.49,-99.466C3485.99,-63.548 3459.44,-36.149 3425.82,-17.268C3392.21,1.612 3352.07,11.052 3305.41,11.052C3231.11,11.052 3175.32,-12.126 3138.02,-58.482C3100.72,-104.838 3082.07,-159.33 3082.07,-221.957C3082.07,-267.699 3091.74,-308.299 3111.08,-343.757C3130.42,-379.214 3157.51,-406.69 3192.36,-426.185C3227.2,-445.679 3266.72,-455.426 3310.93,-455.426ZM3307.25,-410.758C3272.25,-410.758 3242.62,-396.943 3218.37,-369.314C3187.67,-334.931 3172.32,-284.891 3172.32,-219.194C3172.32,-155.953 3185.37,-107.755 3211.47,-74.6C3235.1,-45.128 3267.18,-30.392 3307.71,-30.392C3333.8,-30.392 3357.06,-37.3 3377.47,-51.115C3397.89,-64.929 3414.39,-86.956 3426.97,-117.195C3439.56,-147.434 3445.86,-182.968 3445.86,-223.799C3445.86,-263.708 3439.1,-299.473 3425.59,-331.093C3415.16,-356.267 3399.42,-375.838 3378.39,-389.806C3357.36,-403.774 3333.65,-410.758 3307.25,-410.758Z" style="fill-rule:nonzero;"/>
        </g>
        <g transform="matrix(0.412585,-2.29031e-17,2.09113e-17,0.376705,3036.88,3314.21)">
            <path d="M3839.12,-455.426C3884.24,-455.426 3923.31,-446.062 3956.31,-427.336C3989.31,-408.609 4015.33,-381.287 4034.36,-345.368C4053.4,-309.45 4062.91,-268.466 4062.91,-222.417C4062.91,-176.368 4053.17,-135.384 4033.67,-99.466C4014.18,-63.548 3987.62,-36.149 3954.01,-17.268C3920.39,1.612 3880.25,11.052 3833.59,11.052C3759.3,11.052 3703.5,-12.126 3666.2,-58.482C3628.9,-104.838 3610.25,-159.33 3610.25,-221.957C3610.25,-267.699 3619.92,-308.299 3639.26,-343.757C3658.6,-379.214 3685.7,-406.69 3720.54,-426.185C3755.38,-445.679 3794.91,-455.426 3839.12,-455.426ZM3835.43,-410.758C3800.43,-410.758 3770.81,-396.943 3746.56,-369.314C3715.86,-334.931 3700.51,-284.891 3700.51,-219.194C3700.51,-155.953 3713.55,-107.755 3739.65,-74.6C3763.29,-45.128 3795.37,-30.392 3835.89,-30.392C3861.99,-30.392 3885.24,-37.3 3905.66,-51.115C3926.07,-64.929 3942.57,-86.956 3955.16,-117.195C3967.74,-147.434 3974.04,-182.968 3974.04,-223.799C3974.04,-263.708 3967.29,-299.473 3953.78,-331.093C3943.34,-356.267 3927.61,-375.838 3906.58,-389.806C3885.55,-403.774 3861.83,-410.758 3835.43,-410.758Z" style="fill-rule:nonzero;"/>
        </g>
        <g transform="matrix(0.412585,-2.29031e-17,2.09113e-17,0.376705,3036.88,3314.21)">
            <path d="M4133.83,-378.063L4133.83,-417.205C4156.85,-419.354 4176.96,-423.115 4194.15,-428.487C4211.35,-433.859 4230.99,-442.839 4253.1,-455.426L4287.17,-455.426L4287.17,-378.063C4322.17,-405.693 4349.49,-424.266 4369.14,-433.783C4399.23,-448.211 4427.93,-455.426 4455.25,-455.426C4473.98,-455.426 4492.32,-451.972 4510.28,-445.065C4528.24,-438.157 4542.67,-429.638 4553.57,-419.507C4564.47,-409.377 4573.75,-395.562 4581.43,-378.063C4613.66,-406.614 4643.52,-426.645 4670.99,-438.157C4698.47,-449.67 4726.33,-455.426 4754.57,-455.426C4781.59,-455.426 4805.46,-449.823 4826.18,-438.618C4846.9,-427.413 4861.94,-413.368 4871.31,-396.483C4880.67,-379.598 4885.35,-354.885 4885.35,-322.344L4885.35,-108.676C4885.35,-86.265 4885.81,-73.218 4886.73,-69.534C4888.27,-63.701 4891.57,-58.175 4896.63,-52.956C4901.7,-47.738 4907.45,-44.054 4913.9,-41.905C4920.35,-39.756 4932.32,-38.681 4949.82,-38.681L4964.56,-38.681L4964.56,0L4732.93,0L4732.93,-38.681C4759.33,-38.988 4776.44,-40.907 4784.27,-44.437C4792.1,-47.968 4797.93,-53.724 4801.77,-61.706C4805.61,-69.688 4807.53,-85.344 4807.53,-108.676L4807.53,-311.753C4807.53,-337.54 4805.23,-355.346 4800.62,-365.17C4796.02,-374.993 4787.8,-383.205 4775.98,-389.806C4764.16,-396.406 4749.51,-399.706 4732.01,-399.706C4710.21,-399.706 4687.34,-393.873 4663.39,-382.208C4631.47,-366.244 4606.29,-348.285 4587.87,-328.33L4587.87,-108.676C4587.87,-87.493 4588.87,-73.602 4590.87,-67.001C4592.86,-60.401 4596.24,-54.875 4601,-50.424C4605.76,-45.972 4611.28,-42.902 4617.57,-41.214C4623.87,-39.525 4639.14,-38.681 4663.39,-38.681L4663.39,0L4436.37,0L4436.37,-38.681L4449.27,-38.681C4467.38,-38.681 4480.19,-40.83 4487.72,-45.128C4495.24,-49.426 4501.15,-56.026 4505.45,-64.929C4508.52,-71.99 4510.05,-86.572 4510.05,-108.676L4510.05,-304.845C4510.05,-333.703 4507.82,-353.197 4503.37,-363.328C4498.92,-373.458 4490.4,-382.054 4477.82,-389.115C4465.23,-396.176 4450.49,-399.706 4433.61,-399.706C4413.65,-399.706 4393.55,-394.794 4373.28,-384.971C4343.2,-370.542 4315.57,-351.662 4290.4,-328.33L4290.4,-91.638C4290.4,-77.516 4292.32,-67.155 4296.15,-60.555C4299.99,-53.954 4306.05,-48.659 4314.34,-44.668C4322.63,-40.677 4333.99,-38.681 4348.42,-38.681L4365.46,-38.681L4365.46,0L4133.83,0L4133.83,-38.681L4146.26,-38.681C4167.44,-38.681 4181.41,-40.37 4188.17,-43.747C4197.99,-48.352 4205.05,-55.719 4209.35,-65.85C4211.81,-71.376 4213.03,-85.651 4213.03,-108.676L4213.03,-378.063L4133.83,-378.063Z" style="fill-rule:nonzero;"/>
        </g>
        <g transform="matrix(0.426309,-2.36649e-17,2.16069e-17,0.389236,5063.39,3314.07)">
            <path d="M556.273,-642.385L589.429,-642.385L647.911,-428.257L605.085,-416.284C582.061,-465.71 564.562,-498.865 552.589,-515.75C532.942,-543.073 508.459,-564.716 479.141,-580.679C449.823,-596.643 417.512,-604.625 382.208,-604.625C340.763,-604.625 302.619,-593.496 267.776,-571.239C232.932,-548.982 204.688,-516.364 183.045,-473.385C161.402,-430.406 150.581,-382.054 150.581,-328.33C150.581,-273.071 161.556,-223.799 183.506,-180.513C205.456,-137.226 235.157,-103.918 272.611,-80.586C310.064,-57.254 350.434,-45.589 393.72,-45.589C434.55,-45.589 476.301,-57.254 518.974,-80.586C561.646,-103.918 598.639,-136.612 629.952,-178.671L666.791,-153.344C647.758,-125.1 627.189,-101.155 605.085,-81.507C570.088,-49.887 533.709,-26.555 495.949,-11.512C458.189,3.53 416.745,11.052 371.616,11.052C271.843,11.052 190.797,-25.941 128.477,-99.927C76.902,-161.325 51.115,-234.39 51.115,-319.12C51.115,-381.44 65.39,-437.85 93.94,-488.351C122.491,-538.851 161.863,-578.991 212.056,-608.769C262.25,-638.548 316.357,-653.437 374.379,-653.437C405.386,-653.437 434.166,-649.216 460.721,-640.773C487.276,-632.331 514.215,-618.747 541.538,-600.02L556.273,-642.385Z" style="fill-rule:nonzero;"/>
        </g>
        <g transform="matrix(0.426309,-2.36649e-17,2.16069e-17,0.389236,5067.39,3314.07)">
            <path d="M964.269,-455.426C1009.4,-455.426 1048.46,-446.062 1081.46,-427.336C1114.46,-408.609 1140.48,-381.287 1159.52,-345.368C1178.55,-309.45 1188.07,-268.466 1188.07,-222.417C1188.07,-176.368 1178.32,-135.384 1158.83,-99.466C1139.33,-63.548 1112.78,-36.149 1079.16,-17.268C1045.55,1.612 1005.41,11.052 958.743,11.052C884.45,11.052 828.654,-12.126 791.354,-58.482C754.054,-104.838 735.404,-159.33 735.404,-221.957C735.404,-267.699 745.075,-308.299 764.415,-343.757C783.756,-379.214 810.848,-406.69 845.692,-426.185C880.536,-445.679 920.061,-455.426 964.269,-455.426ZM960.585,-410.758C925.587,-410.758 895.962,-396.943 871.71,-369.314C841.01,-334.931 825.661,-284.891 825.661,-219.194C825.661,-155.953 838.708,-107.755 864.802,-74.6C888.441,-45.128 920.522,-30.392 961.045,-30.392C987.14,-30.392 1010.39,-37.3 1030.81,-51.115C1051.22,-64.929 1067.73,-86.956 1080.31,-117.195C1092.9,-147.434 1099.19,-182.968 1099.19,-223.799C1099.19,-263.708 1092.44,-299.473 1078.93,-331.093C1068.49,-356.267 1052.76,-375.838 1031.73,-389.806C1010.7,-403.774 986.986,-410.758 960.585,-410.758Z" style="fill-rule:nonzero;"/>
        </g>
        <g transform="matrix(0.426309,-2.36649e-17,2.16069e-17,0.389236,5027.42,3314.07)">
            <path d="M1376.41,-107.294C1392.68,-107.294 1406.42,-101.692 1417.62,-90.487C1428.83,-79.281 1434.43,-65.697 1434.43,-49.733C1434.43,-33.769 1428.75,-20.185 1417.39,-8.98C1406.03,2.226 1392.37,7.828 1376.41,7.828C1360.75,7.828 1347.24,2.226 1335.88,-8.98C1324.53,-20.185 1318.85,-33.769 1318.85,-49.733C1318.85,-65.697 1324.45,-79.281 1335.65,-90.487C1346.86,-101.692 1360.44,-107.294 1376.41,-107.294Z" style="fill-rule:nonzero;"/>
        </g>
        <g transform="matrix(2.27417,-1.13231e-16,1.13231e-16,2.27417,4235.03,3031.67)">
            <path d="M556.273,-642.385L589.429,-642.385L647.911,-428.257L605.085,-416.284C582.061,-465.71 564.562,-498.865 552.589,-515.75C532.942,-543.073 508.459,-564.716 479.141,-580.679C449.823,-596.643 417.512,-604.625 382.208,-604.625C340.763,-604.625 302.619,-593.496 267.776,-571.239C232.932,-548.982 204.688,-516.364 183.045,-473.385C161.402,-430.406 150.581,-382.054 150.581,-328.33C150.581,-273.071 161.556,-223.799 183.506,-180.513C205.456,-137.226 235.157,-103.918 272.611,-80.586C310.064,-57.254 350.434,-45.589 393.72,-45.589C434.55,-45.589 476.301,-57.254 518.974,-80.586C561.646,-103.918 598.639,-136.612 629.952,-178.671L666.791,-153.344C647.758,-125.1 627.189,-101.155 605.085,-81.507C570.088,-49.887 533.709,-26.555 495.949,-11.512C458.189,3.53 416.745,11.052 371.616,11.052C271.843,11.052 190.797,-25.941 128.477,-99.927C76.902,-161.325 51.115,-234.39 51.115,-319.12C51.115,-381.44 65.39,-437.85 93.94,-488.351C122.491,-538.851 161.863,-578.991 212.056,-608.769C262.25,-638.548 316.357,-653.437 374.379,-653.437C405.386,-653.437 434.166,-649.216 460.721,-640.773C487.276,-632.331 514.215,-618.747 541.538,-600.02L556.273,-642.385Z" style="fill-rule:nonzero;"/>
        </g>
    </g>
</svg>
