<svg xmlns="http://www.w3.org/2000/svg" viewBox="0 0 900 900">
    <g transform="matrix(0.416725,4.62658e-17,-4.62658e-17,0.416725,267.951,581.546)">
        <path d="M44.207,-642.385L247.284,-642.385L437.006,-133.542L621.663,-642.385L817.832,-642.385L817.832,-603.243L801.255,-603.243C781.3,-603.243 767.869,-601.555 760.962,-598.178C754.054,-594.801 748.605,-588.891 744.614,-580.449C740.623,-572.007 738.628,-558.115 738.628,-538.775L738.628,-115.123C738.628,-88.414 740.24,-71.069 743.463,-63.087C746.686,-55.105 752.059,-49.042 759.58,-44.898C767.102,-40.753 780.993,-38.681 801.255,-38.681L817.832,-38.681L817.832,0L572.391,0L572.391,-38.681L589.889,-38.681C605.546,-38.681 616.981,-39.909 624.196,-42.365C631.41,-44.821 637.397,-48.889 642.155,-54.568C646.913,-60.248 649.6,-66.157 650.214,-72.297C651.749,-84.884 652.516,-94.708 652.516,-101.769L652.516,-574.693L442.993,0L397.404,0L186.038,-566.404L186.038,-110.978C186.038,-87.954 188.034,-72.374 192.025,-64.239C196.016,-56.103 202.232,-49.81 210.675,-45.358C219.117,-40.907 234.237,-38.681 256.033,-38.681L270.769,-38.681L270.769,0L44.207,0L44.207,-38.681L57.101,-38.681C78.897,-38.681 94.477,-40.984 103.841,-45.589C113.204,-50.194 119.881,-56.717 123.872,-65.16C127.863,-73.602 129.859,-90.256 129.859,-115.123L129.859,-534.63C129.859,-557.962 128.17,-573.388 124.793,-580.91C121.416,-588.431 115.814,-594.034 107.985,-597.718C100.157,-601.401 86.265,-603.243 66.311,-603.243L44.207,-603.243L44.207,-642.385Z" style="fill:white;fill-rule:nonzero;"/>
    </g>
    <g transform="matrix(0.416725,-2.31329e-17,2.31329e-17,0.416725,14.1367,581.546)">
        <path d="M551.208,-642.385L584.824,-642.385L637.32,-444.374L595.876,-430.099C568.246,-492.726 536.472,-537.393 500.554,-564.102C464.636,-590.81 423.959,-604.164 378.524,-604.164C313.134,-604.164 258.336,-576.995 214.128,-522.657C169.921,-468.32 147.818,-403.544 147.818,-328.33C147.818,-274.299 159.1,-224.72 181.664,-179.592C204.228,-134.463 234.39,-100.08 272.15,-76.442C309.911,-52.803 349.973,-40.984 392.338,-40.984C419.661,-40.984 445.679,-45.972 470.392,-55.95C495.105,-65.927 515.136,-77.823 530.486,-91.638C541.845,-102.076 549.519,-113.588 553.51,-126.175C557.501,-138.761 559.343,-156.26 559.036,-178.671L559.036,-209.063C559.036,-233.316 556.197,-250.507 550.517,-260.638C544.838,-270.769 536.779,-277.983 526.341,-282.281C518.36,-285.658 496.87,-287.346 461.873,-287.346L461.873,-326.028L722.511,-326.028L722.511,-287.346L701.328,-287.346C683.215,-287.346 670.859,-285.581 664.259,-282.051C657.658,-278.52 652.823,-273.071 649.753,-265.703C646.683,-258.336 645.148,-243.907 645.148,-222.417L645.148,0L599.56,0L575.153,-56.18C549.366,-37.453 521.89,-22.871 492.726,-12.433C449.132,3.223 406,11.052 363.328,11.052C277.062,11.052 203.153,-20.645 141.601,-84.04C80.049,-147.434 49.273,-226.408 49.273,-320.962C49.273,-414.903 80.432,-493.8 142.752,-557.655C205.072,-621.51 279.672,-653.437 366.551,-653.437C388.348,-653.437 409.837,-651.288 431.02,-646.99C452.202,-642.692 471.543,-636.552 489.042,-628.57C502.242,-622.738 517.592,-613.221 535.091,-600.02L551.208,-642.385Z" style="fill:white;fill-rule:nonzero;"/>
    </g>
    <g transform="matrix(0.416725,-2.07487e-17,2.07487e-17,0.416725,587.462,586.152)">
        <path d="M556.273,-642.385L589.429,-642.385L647.911,-428.257L605.085,-416.284C582.061,-465.71 564.562,-498.865 552.589,-515.75C532.942,-543.073 508.459,-564.716 479.141,-580.679C449.823,-596.643 417.512,-604.625 382.208,-604.625C340.763,-604.625 302.619,-593.496 267.776,-571.239C232.932,-548.982 204.688,-516.364 183.045,-473.385C161.402,-430.406 150.581,-382.054 150.581,-328.33C150.581,-273.071 161.556,-223.799 183.506,-180.513C205.456,-137.226 235.157,-103.918 272.611,-80.586C310.064,-57.254 350.434,-45.589 393.72,-45.589C434.55,-45.589 476.301,-57.254 518.974,-80.586C561.646,-103.918 598.639,-136.612 629.952,-178.671L666.791,-153.344C647.758,-125.1 627.189,-101.155 605.085,-81.507C570.088,-49.887 533.709,-26.555 495.949,-11.512C458.189,3.53 416.745,11.052 371.616,11.052C271.843,11.052 190.797,-25.941 128.477,-99.927C76.902,-161.325 51.115,-234.39 51.115,-319.12C51.115,-381.44 65.39,-437.85 93.94,-488.351C122.491,-538.851 161.863,-578.991 212.056,-608.769C262.25,-638.548 316.357,-653.437 374.379,-653.437C405.386,-653.437 434.166,-649.216 460.721,-640.773C487.276,-632.331 514.215,-618.747 541.538,-600.02L556.273,-642.385Z" style="fill:white;fill-rule:nonzero;"/>
    </g>
</svg>
