<?xml version="1.0" encoding="UTF-8" standalone="no"?>
<!DOCTYPE svg PUBLIC "-//W3C//DTD SVG 1.1//EN" "http://www.w3.org/Graphics/SVG/1.1/DTD/svg11.dtd">
<svg width="100%" height="100%" viewBox="0 0 459 459" version="1.1" xmlns="http://www.w3.org/2000/svg" xmlns:xlink="http://www.w3.org/1999/xlink" xml:space="preserve" xmlns:serif="http://www.serif.com/" style="fill-rule:evenodd;clip-rule:evenodd;stroke-linejoin:round;stroke-miterlimit:2;">
    <g transform="matrix(1,0,0,1,-3547.91,-3628.59)">
        <g transform="matrix(4.16667,0,0,4.16667,2211.1,2705.9)">
            <path d="M375.835,225.446C347.105,225.446 324.835,246.491 324.835,274.916C324.835,289.784 330.929,302.632 340.852,311.506C341.685,312.252 342.187,313.296 342.222,314.415L342.499,323.486C342.588,326.38 345.577,328.263 348.225,327.094L358.348,322.625C359.206,322.247 360.168,322.177 361.072,322.426C365.724,323.705 370.675,324.386 375.835,324.386C404.565,324.386 426.835,303.341 426.835,274.916C426.835,246.491 404.565,225.446 375.835,225.446Z" style="fill:none;stroke:#0084FF;stroke-width:8px;"/>
        </g>
        <g transform="matrix(4.16667,0,0,4.16667,2211.1,2705.9)">
            <path d="M345.209,289.383L360.191,265.615C362.574,261.834 367.677,260.893 371.252,263.574L383.168,272.511C384.261,273.331 385.766,273.326 386.854,272.5L402.946,260.287C405.094,258.657 407.898,261.228 406.46,263.509L391.479,287.277C389.096,291.058 383.993,291.999 380.417,289.318L368.502,280.381C367.409,279.561 365.904,279.565 364.816,280.392L348.724,292.605C346.576,294.234 343.772,291.664 345.209,289.383Z" style="fill:#0084FF;"/>
        </g>
    </g>
</svg>
