<?xml version="1.0" encoding="UTF-8" standalone="no"?>
<!DOCTYPE svg PUBLIC "-//W3C//DTD SVG 1.1//EN" "http://www.w3.org/Graphics/SVG/1.1/DTD/svg11.dtd">
<svg width="100%" height="100%" viewBox="0 0 359 360" version="1.1" xmlns="http://www.w3.org/2000/svg" xmlns:xlink="http://www.w3.org/1999/xlink" xml:space="preserve" xmlns:serif="http://www.serif.com/" style="fill-rule:evenodd;clip-rule:evenodd;stroke-linejoin:round;stroke-miterlimit:2;">
    <g transform="matrix(1,0,0,1,-5474.29,-3669.45)">
        <g transform="matrix(4.16667,0,0,4.16667,2211.1,2705.9)">
            <path fill="#25D366" d="M845.867,283.02C844.797,282.485 839.537,279.897 838.556,279.54C837.575,279.184 836.862,279.005 836.148,280.076C835.436,281.146 833.385,283.556 832.761,284.27C832.137,284.983 831.513,285.073 830.443,284.537C829.373,284.002 825.926,282.873 821.839,279.228C818.658,276.393 816.511,272.89 815.887,271.819C815.263,270.748 815.82,270.169 816.356,269.636C816.837,269.157 817.426,268.387 817.961,267.762C818.496,267.138 818.674,266.691 819.03,265.978C819.388,265.264 819.209,264.639 818.941,264.104C818.674,263.568 816.534,258.304 815.643,256.162C814.774,254.077 813.893,254.359 813.235,254.326C812.612,254.295 811.898,254.289 811.185,254.289C810.472,254.289 809.313,254.556 808.332,255.627C807.351,256.698 804.587,259.285 804.587,264.55C804.587,269.814 808.421,274.9 808.956,275.614C809.491,276.328 816.5,287.132 827.233,291.765C829.786,292.867 831.779,293.525 833.333,294.018C835.896,294.832 838.229,294.717 840.072,294.442C842.127,294.135 846.402,291.854 847.294,289.355C848.186,286.857 848.186,284.716 847.918,284.27C847.65,283.824 846.937,283.556 845.867,283.02ZM826.345,309.667L826.33,309.667C819.944,309.665 813.681,307.95 808.216,304.708L806.916,303.936L793.446,307.469L797.042,294.34L796.195,292.994C792.633,287.329 790.751,280.782 790.754,274.059C790.762,254.442 806.728,238.482 826.359,238.482C835.865,238.486 844.802,242.192 851.521,248.916C858.24,255.642 861.938,264.581 861.936,274.088C861.927,293.707 845.961,309.667 826.345,309.667ZM856.635,243.807C848.551,235.715 837.799,231.257 826.345,231.252C802.742,231.252 783.533,250.454 783.524,274.057C783.521,281.601 785.493,288.965 789.24,295.457L783.165,317.639L805.864,311.686C812.119,315.097 819.161,316.894 826.327,316.897L826.345,316.897C826.347,316.897 826.344,316.897 826.345,316.897C849.944,316.897 869.155,297.693 869.165,274.091C869.169,262.653 864.72,251.897 856.635,243.807Z"/>
        </g>
    </g>
</svg>
